<svg width="100" height="100" viewBox="0 0 100 100" fill="none" xmlns="http://www.w3.org/2000/svg">
<path d="M0 50C0 22.3858 22.3858 0 50 0C77.6142 0 100 22.3858 100 50C100 77.6142 77.6142 100 50 100H0V50Z" fill="#FFD500"/>
<path d="M24.8942 64.1331V59.0073C24.6436 59.6841 24.3094 60.2188 23.8916 60.6115C23.4822 61.0042 22.8848 61.2005 22.0994 61.2005C21.2305 61.2005 20.5412 61.0418 20.0316 60.7243C19.5219 60.4068 19.1418 59.9682 18.8911 59.4084C18.6405 58.8486 18.4734 58.1927 18.3898 57.4408C18.3146 56.6888 18.277 55.8825 18.277 55.022V46.8507C18.277 45.4053 18.5318 44.2356 19.0415 43.3416C19.5595 42.4476 20.4326 42.0006 21.6608 42.0006C22.5715 42.0006 23.2692 42.197 23.7537 42.5897C24.2467 42.974 24.6268 43.5129 24.8942 44.2064V42.2012H29.4561V64.1331H24.8942ZM23.8164 57.6914C24.2091 57.6914 24.4848 57.4867 24.6436 57.0773C24.8107 56.6679 24.8942 56.0956 24.8942 55.3604V47.4272C24.8942 46.9844 24.8274 46.55 24.6937 46.1239C24.5684 45.6894 24.2843 45.4722 23.8415 45.4722C23.3569 45.4722 23.0519 45.6769 22.9266 46.0863C22.8013 46.4957 22.7386 46.9427 22.7386 47.4272V55.3353C22.7386 56.906 23.0979 57.6914 23.8164 57.6914Z" fill="black"/>
<path d="M34.6069 61.2005C33.5626 61.2005 32.7647 60.9582 32.2132 60.4736C31.6701 59.989 31.2983 59.3248 31.0978 58.481C30.8973 57.6371 30.797 56.6804 30.797 55.611C30.797 54.4664 30.9098 53.5306 31.1354 52.8037C31.361 52.0685 31.7453 51.4669 32.2884 50.999C32.8398 50.5311 33.596 50.1343 34.5568 49.8084L37.339 48.856V46.9259C37.339 45.915 37.009 45.4095 36.349 45.4095C35.7474 45.4095 35.4466 45.8189 35.4466 46.6377V47.7656H31.0853C31.0769 47.6988 31.0728 47.6152 31.0728 47.515C31.0728 47.4064 31.0728 47.2852 31.0728 47.1515C31.0728 45.28 31.5114 43.9557 32.3887 43.1787C33.2743 42.3933 34.6738 42.0006 36.5871 42.0006C37.5897 42.0006 38.4878 42.1803 39.2816 42.5396C40.0753 42.8905 40.7019 43.4126 41.1615 44.1061C41.6293 44.7996 41.8633 45.656 41.8633 46.6753V61H37.4017V58.7692C37.1845 59.5546 36.8252 60.1561 36.3239 60.5739C35.8226 60.9916 35.2503 61.2005 34.6069 61.2005ZM36.374 57.7165C36.7416 57.7165 36.9923 57.5619 37.126 57.2528C37.2597 56.9436 37.3265 56.6094 37.3265 56.2502V51.0116C36.7082 51.2622 36.2278 51.5797 35.8853 51.964C35.5427 52.34 35.3714 52.8956 35.3714 53.6309V56.0496C35.3714 57.1609 35.7056 57.7165 36.374 57.7165Z" fill="black"/>
<path d="M43.5928 61V38.9427H48.1546V61H43.5928Z" fill="black"/>
<path d="M49.9342 41.0482V37.3135H54.4209V41.0482H49.9342ZM49.9342 61V42.2012H54.4209V61H49.9342Z" fill="black"/>
<path d="M58.5942 61L55.5739 42.2012H60.0731L61.1509 54.7588L62.3665 42.2012H66.8532L63.7827 61H58.5942Z" fill="black"/>
<path d="M73.2949 61.2005C71.9581 61.2005 70.8929 60.9499 70.0991 60.4486C69.3054 59.9473 68.7373 59.2246 68.3947 58.2804C68.0521 57.3363 67.8809 56.2 67.8809 54.8716V47.3145C67.8809 45.5683 68.3822 44.2482 69.3848 43.3542C70.3874 42.4518 71.766 42.0006 73.5205 42.0006C77.1299 42.0006 78.9346 43.7719 78.9346 47.3145V48.6805C78.9346 50.3348 78.9179 51.446 78.8844 52.0142H72.3675V55.6486C72.3675 55.9828 72.3884 56.3128 72.4302 56.6387C72.472 56.9562 72.5639 57.2193 72.7059 57.4282C72.8563 57.6371 73.0944 57.7415 73.4202 57.7415C73.8881 57.7415 74.1806 57.541 74.2975 57.14C74.4145 56.7306 74.473 56.2 74.473 55.5483V53.7437H78.9346V54.8089C78.9346 56.2126 78.7591 57.3906 78.4082 58.3431C78.0657 59.2872 77.4808 60.0016 76.6536 60.4862C75.8349 60.9624 74.7153 61.2005 73.2949 61.2005ZM72.3425 49.7834H74.473V47.2518C74.473 46.575 74.3894 46.0904 74.2223 45.798C74.0552 45.4972 73.8046 45.3468 73.4704 45.3468C73.1111 45.3468 72.8312 45.4889 72.6307 45.7729C72.4385 46.057 72.3425 46.55 72.3425 47.2518V49.7834Z" fill="black"/>
</svg>
