<svg width="56" height="23" viewBox="0 0 56 23" fill="none" xmlns="http://www.w3.org/2000/svg">
<path d="M9.19531 23.0088L6.1875 21.0322C5.84375 21.1253 5.48926 21.1719 5.12402 21.1719C3.64876 21.1719 2.52083 20.735 1.74023 19.8613C0.966797 18.9876 0.580078 17.7129 0.580078 16.0371V6.89551C0.580078 5.26986 0.977539 4.03451 1.77246 3.18945C2.57454 2.3444 3.73112 1.92188 5.24219 1.92188C6.75326 1.92188 7.90625 2.3444 8.70117 3.18945C9.50326 4.03451 9.9043 5.26986 9.9043 6.89551V16.0371C9.9043 17.5983 9.55339 18.8265 8.85156 19.7217L10.4736 20.7529L9.19531 23.0088ZM5.24219 17.6914C5.51432 17.6914 5.70768 17.5911 5.82227 17.3906C5.94401 17.1901 6.01921 16.943 6.04785 16.6494C6.08366 16.3558 6.10156 16.0729 6.10156 15.8008V6.95996C6.10156 6.55892 6.04427 6.20085 5.92969 5.88574C5.82227 5.56348 5.58594 5.40234 5.2207 5.40234C4.84831 5.40234 4.60482 5.5599 4.49023 5.875C4.37565 6.18294 4.31836 6.54102 4.31836 6.94922V15.876C4.31836 16.1266 4.33268 16.3952 4.36133 16.6816C4.39714 16.9609 4.47949 17.2008 4.6084 17.4014C4.7373 17.5947 4.94857 17.6914 5.24219 17.6914Z" fill="black"/>
<path d="M11.1934 21L13.0195 2.09375H19.4326L21.2266 21H17.6494L17.3809 17.9492H15.1035L14.8672 21H11.1934ZM15.3721 14.9307H17.0908L16.2637 5.31641H16.0918L15.3721 14.9307Z" fill="black"/>
<path d="M22.3867 21V2.09375H26.168V17.7773H30.0566V21H22.3867Z" fill="black"/>
<path d="M31.0449 21V4.88672H34.8906V21H31.0449Z" fill="black"/>
<path d="M38.4678 21L35.8789 4.88672H39.7354L40.6592 15.6504L41.7012 4.88672H45.5469L42.915 21H38.4678Z" fill="black"/>
<path d="M51.0684 21.1719C49.9225 21.1719 49.0094 20.957 48.3291 20.5273C47.6488 20.0977 47.1618 19.4782 46.8682 18.6689C46.5745 17.8597 46.4277 16.8857 46.4277 15.7471V9.26953C46.4277 7.77279 46.8574 6.64128 47.7168 5.875C48.5762 5.10156 49.7578 4.71484 51.2617 4.71484C54.3555 4.71484 55.9023 6.23307 55.9023 9.26953V10.4404C55.9023 11.8584 55.888 12.8109 55.8594 13.2979H50.2734V16.4131C50.2734 16.6995 50.2913 16.9824 50.3271 17.2617C50.363 17.5339 50.4417 17.7594 50.5635 17.9385C50.6924 18.1175 50.8965 18.207 51.1758 18.207C51.5768 18.207 51.8275 18.0352 51.9277 17.6914C52.028 17.3405 52.0781 16.8857 52.0781 16.3271V14.7803H55.9023V15.6934C55.9023 16.8965 55.752 17.9062 55.4512 18.7227C55.1576 19.5319 54.6562 20.1442 53.9473 20.5596C53.2454 20.9678 52.2858 21.1719 51.0684 21.1719ZM50.252 11.3857H52.0781V9.21582C52.0781 8.63574 52.0065 8.22038 51.8633 7.96973C51.7201 7.71191 51.5052 7.58301 51.2188 7.58301C50.9108 7.58301 50.6709 7.70475 50.499 7.94824C50.3343 8.19173 50.252 8.61426 50.252 9.21582V11.3857Z" fill="black"/>
<path d="M31 2C31 0.895431 31.8954 0 33 0C34.1046 0 35 0.895431 35 2C35 3.10457 34.1046 4 33 4H31V2Z" fill="#FDFF00"/>
</svg>
